<svg width="24" height="24" viewBox="0 0 24 24" fill="none" xmlns="http://www.w3.org/2000/svg">
<path fill-rule="evenodd" clip-rule="evenodd" d="M17.5535 7.04687C16.5178 6.55781 15.4104 6.20238 14.2526 6C14.1104 6.25945 13.9443 6.60841 13.8298 6.88601C12.599 6.69921 11.3796 6.69921 10.1714 6.88601C10.0569 6.60841 9.88704 6.25945 9.74357 6C8.58454 6.20238 7.47584 6.55912 6.44013 7.04946C4.3511 10.2354 3.78479 13.3423 4.06794 16.405C5.4535 17.4493 6.79627 18.0836 8.11638 18.4987C8.44233 18.046 8.73302 17.5647 8.98345 17.0575C8.5065 16.8746 8.04969 16.6489 7.61805 16.3868C7.73256 16.3012 7.84457 16.2117 7.95279 16.1196C10.5855 17.3624 13.4459 17.3624 16.0472 16.1196C16.1566 16.2117 16.2686 16.3012 16.3819 16.3868C15.949 16.6502 15.4909 16.8759 15.014 17.0588C15.2644 17.5647 15.5538 18.0473 15.881 18.5C17.2024 18.0849 18.5464 17.4506 19.932 16.405C20.2642 12.8545 19.3644 9.77621 17.5535 7.04687ZM9.34212 14.5214C8.55181 14.5214 7.9037 13.7768 7.9037 12.8701C7.9037 11.9633 8.53797 11.2174 9.34212 11.2174C10.1463 11.2174 10.7944 11.962 10.7805 12.8701C10.7818 13.7768 10.1463 14.5214 9.34212 14.5214ZM13.2194 12.8701C13.2194 13.7768 13.8675 14.5214 14.6578 14.5214C15.462 14.5214 16.0962 13.7768 16.0962 12.8701C16.1101 11.962 15.462 11.2174 14.6578 11.2174C13.8537 11.2174 13.2194 11.9633 13.2194 12.8701Z" fill="#5865F2"/>
</svg>
