<svg width="17" height="16" viewBox="0 0 17 16" fill="none" xmlns="http://www.w3.org/2000/svg">
<path d="M5.55977 14.4033L5.55978 14.4033C5.56186 14.4028 5.56394 14.4023 5.56601 14.4018C5.58595 14.3968 5.60575 14.3919 5.62542 14.387C5.95024 14.3061 6.23778 14.2346 6.49887 14.0867C6.75996 13.9389 6.96926 13.7292 7.20569 13.4922C7.2215 13.4764 7.23743 13.4604 7.25351 13.4444L6.73791 12.9288L7.25351 13.4444L7.25352 13.4443L14.4948 6.2031L14.5118 6.18611C14.7449 5.95301 14.946 5.75188 15.1007 5.57383C15.2636 5.38631 15.4116 5.18409 15.5101 4.93789C15.719 4.41609 15.719 3.83391 15.5101 3.31211C15.4116 3.06591 15.2636 2.86369 15.1007 2.67617C14.946 2.49812 14.7449 2.29699 14.5118 2.06389L14.4948 2.0469L14.0188 2.52284L14.4948 2.0469L14.4778 2.02993C14.2447 1.7968 14.0436 1.59566 13.8655 1.44099C13.678 1.2781 13.4758 1.13009 13.2296 1.03154C12.7078 0.822679 12.1256 0.822679 11.6038 1.03154C11.3576 1.13009 11.1554 1.2781 10.9678 1.44099C10.7898 1.59566 10.5887 1.79679 10.3556 2.02991L10.3386 2.0469L3.09732 9.28815C3.08125 9.30422 3.06528 9.32015 3.04944 9.33596C2.8125 9.5724 2.60275 9.7817 2.45493 10.0428C2.3071 10.3039 2.23554 10.5914 2.1547 10.9162C2.14929 10.938 2.14385 10.9598 2.13833 10.9819L1.58735 13.1858C1.58412 13.1987 1.58087 13.2117 1.57761 13.2248C1.52038 13.4533 1.45926 13.6973 1.43921 13.9022C1.41714 14.1279 1.42228 14.5086 1.72767 14.814C2.03306 15.1194 2.41377 15.1245 2.63942 15.1025C2.84437 15.0824 3.08842 15.0213 3.31692 14.9641C3.32995 14.9608 3.34293 14.9575 3.35584 14.9543L5.55977 14.4033Z" stroke="#3652E3" stroke-width="1.45833"/>
</svg>
