<svg width="25" height="25" viewBox="0 0 25 25" fill="none" xmlns="http://www.w3.org/2000/svg">
<path d="M20.8333 20.8333V21.5625H21.5624V20.8333H20.8333ZM16.1405 15.1094C15.8558 14.8246 15.3941 14.8246 15.1093 15.1094C14.8246 15.3942 14.8246 15.8558 15.1093 16.1406L16.1405 15.1094ZM20.1041 14.5833V20.8333H21.5624V14.5833H20.1041ZM20.8333 20.1042H14.5833V21.5625H20.8333V20.1042ZM21.3489 20.3177L16.1405 15.1094L15.1093 16.1406L20.3177 21.3489L21.3489 20.3177Z" fill="#B3B3B3"/>
<path d="M4.16675 20.8333H3.43758V21.5625H4.16675V20.8333ZM9.89068 16.1406C10.1754 15.8558 10.1754 15.3942 9.89068 15.1094C9.60592 14.8246 9.14424 14.8246 8.85948 15.1094L9.89068 16.1406ZM3.43758 14.5833V20.8333H4.89591V14.5833H3.43758ZM4.16675 21.5625H10.4167V20.1042H4.16675V21.5625ZM4.68235 21.3489L9.89068 16.1406L8.85948 15.1094L3.65115 20.3177L4.68235 21.3489Z" fill="#B3B3B3"/>
<path d="M20.8333 4.16667H21.5624V3.4375H20.8333V4.16667ZM15.1093 8.8594C14.8246 9.14416 14.8246 9.60584 15.1093 9.8906C15.3941 10.1754 15.8558 10.1754 16.1405 9.8906L15.1093 8.8594ZM21.5624 10.4167V4.16667H20.1041V10.4167H21.5624ZM20.8333 3.4375H14.5833V4.89583H20.8333V3.4375ZM20.3177 3.65107L15.1093 8.8594L16.1405 9.8906L21.3489 4.68227L20.3177 3.65107Z" fill="#B3B3B3"/>
<path d="M4.16675 4.16667V3.4375H3.43758V4.16667H4.16675ZM8.85948 9.8906C9.14424 10.1754 9.60592 10.1754 9.89068 9.8906C10.1754 9.60584 10.1754 9.14416 9.89068 8.8594L8.85948 9.8906ZM4.89591 10.4167V4.16667H3.43758V10.4167H4.89591ZM4.16675 4.89583H10.4167V3.4375H4.16675V4.89583ZM3.65115 4.68227L8.85948 9.8906L9.89068 8.8594L4.68235 3.65107L3.65115 4.68227Z" fill="#B3B3B3"/>
</svg>
