<svg width="33" height="33" viewBox="0 0 33 33" fill="none" xmlns="http://www.w3.org/2000/svg">
<path d="M17.8954 4.33337H12.3333C9.81918 4.33337 8.5621 4.33337 7.78105 5.11442C7 5.89547 7 7.15255 7 9.66671V23C7 25.5142 7 26.7713 7.78105 27.5523C8.5621 28.3334 9.81918 28.3334 12.3333 28.3334H20.3333C22.8475 28.3334 24.1046 28.3334 24.8856 27.5523C25.6667 26.7713 25.6667 25.5142 25.6667 23V12.1046C25.6667 11.5596 25.6667 11.2871 25.5652 11.0421C25.4637 10.7971 25.271 10.6044 24.8856 10.219L19.781 5.11442C19.3957 4.72905 19.203 4.53636 18.958 4.43487C18.7129 4.33337 18.4404 4.33337 17.8954 4.33337Z" stroke="#526EFF" stroke-width="1.66667"/>
<path d="M12.3333 17.6667L20.3333 17.6667" stroke="#526EFF" stroke-width="1.66667" stroke-linecap="round"/>
<path d="M12.3333 23L17.6666 23" stroke="#526EFF" stroke-width="1.66667" stroke-linecap="round"/>
<path d="M17.6665 4.33337V9.66671C17.6665 10.9238 17.6665 11.5523 18.057 11.9428C18.4476 12.3334 19.0761 12.3334 20.3332 12.3334H25.6665" stroke="#526EFF" stroke-width="1.66667"/>
</svg>
