<svg width="24" height="24" viewBox="0 0 24 24" fill="none" xmlns="http://www.w3.org/2000/svg">
<circle cx="12" cy="12" r="12" fill="white"/>
<path d="M12 4C7.58 4 4 7.55585 4 11.946C4 15.4621 6.29 18.432 9.47 19.4848C9.87 19.5543 10.02 19.316 10.02 19.1074C10.02 18.9187 10.01 18.2929 10.01 17.6274C8 17.9949 7.48 17.1407 7.32 16.6938C7.23 16.4653 6.84 15.7601 6.5 15.5714C6.22 15.4224 5.82 15.0549 6.49 15.045C7.12 15.035 7.57 15.6211 7.72 15.8594C8.44 17.0613 9.59 16.7236 10.05 16.515C10.12 15.9985 10.33 15.6509 10.56 15.4522C8.78 15.2536 6.92 14.5682 6.92 11.5289C6.92 10.6647 7.23 9.94959 7.74 9.39337C7.66 9.19472 7.38 8.38025 7.82 7.28767C7.82 7.28767 8.49 7.07909 10.02 8.10214C10.66 7.92335 11.34 7.83396 12.02 7.83396C12.7 7.83396 13.38 7.92335 14.02 8.10214C15.55 7.06915 16.22 7.28767 16.22 7.28767C16.66 8.38025 16.38 9.19472 16.3 9.39337C16.81 9.94959 17.12 10.6548 17.12 11.5289C17.12 14.5781 15.25 15.2536 13.47 15.4522C13.76 15.7005 14.01 16.1773 14.01 16.9222C14.01 17.985 14 18.8392 14 19.1074C14 19.316 14.15 19.5643 14.55 19.4848C17.8064 18.3929 19.9991 15.3598 20 11.946C20 7.55585 16.42 4 12 4Z" fill="black"/>
</svg>
