<svg width="24" height="24" viewBox="0 0 24 24" fill="none" xmlns="http://www.w3.org/2000/svg">
<path d="M5.09091 18.0002H7.63636V11.8199L4 9.09326V16.9095C4 17.5121 4.48818 18.0002 5.09091 18.0002Z" fill="#4285F4"/>
<path d="M16.3635 18.0002H18.909C19.5117 18.0002 19.9999 17.5121 19.9999 16.9095V9.09326L16.3635 11.8199V18.0002Z" fill="#34A853"/>
<path d="M16.3635 7.09358V11.8197L19.9999 9.09309V7.6389C19.9999 6.29105 18.4608 5.52124 17.3817 6.33013L16.3635 7.09358Z" fill="#FBBC04"/>
<path fill-rule="evenodd" clip-rule="evenodd" d="M7.63647 11.8199V7.09375L12.0001 10.3657L16.3637 7.09375V11.8199L12.0001 15.0918L7.63647 11.8199Z" fill="#EA4335"/>
<path d="M4 7.6389V9.09309L7.63636 11.8197V7.09358L6.61818 6.33013C5.53909 5.52124 4 6.29105 4 7.6389Z" fill="#C5221F"/>
</svg>
