<svg width="17" height="17" viewBox="0 0 17 17" fill="none" xmlns="http://www.w3.org/2000/svg">
<path d="M5.76802 14.6534L5.76803 14.6534C5.77011 14.6529 5.77219 14.6524 5.77427 14.6518C5.79421 14.6469 5.81401 14.6419 5.83367 14.637C6.15849 14.5562 6.44604 14.4846 6.70713 14.3368C6.96821 14.189 7.17751 13.9792 7.41394 13.7423C7.42975 13.7265 7.44568 13.7105 7.46176 13.6944L6.94616 13.1788L7.46176 13.6944L7.46177 13.6944L14.703 6.45318L14.72 6.43619C14.9531 6.20308 15.1543 6.00196 15.3089 5.82391C15.4718 5.63638 15.6198 5.43416 15.7184 5.18796C15.9272 4.66616 15.9272 4.08399 15.7184 3.56219C15.6198 3.31599 15.4718 3.11377 15.3089 2.92624C15.1543 2.7482 14.9531 2.54707 14.72 2.31397L14.703 2.29698L14.2271 2.77292L14.703 2.29698L14.686 2.28C14.4529 2.04688 14.2518 1.84574 14.0738 1.69107C13.8862 1.52817 13.684 1.38016 13.4378 1.28162C12.916 1.07276 12.3338 1.07276 11.812 1.28162C11.5658 1.38016 11.3636 1.52818 11.1761 1.69107C10.998 1.84573 10.7969 2.04687 10.5638 2.27998L10.5468 2.29698L3.30557 9.53823C3.2895 9.5543 3.27354 9.57023 3.2577 9.58604C3.02076 9.82247 2.811 10.0318 2.66318 10.2929C2.51535 10.554 2.44379 10.8415 2.36295 11.1663C2.35755 11.188 2.3521 11.2099 2.34659 11.232L1.7956 13.4359C1.79237 13.4488 1.78912 13.4618 1.78586 13.4748C1.72863 13.7033 1.66751 13.9474 1.64746 14.1523C1.62539 14.378 1.63053 14.7587 1.93593 15.0641C2.24132 15.3695 2.62202 15.3746 2.84767 15.3525C3.05263 15.3325 3.29667 15.2714 3.52518 15.2141C3.5382 15.2109 3.55118 15.2076 3.56409 15.2044L5.76802 14.6534Z" stroke="#B3B3B3" stroke-width="1.45833"/>
</svg>
