<svg width="24" height="24" viewBox="0 0 24 24" fill="none" xmlns="http://www.w3.org/2000/svg">
<path d="M18.362 8.73632C18.3717 8.87736 18.3717 9.0184 18.3717 9.16074C18.3717 13.4979 15.0697 18.5 9.03173 18.5V18.4974C7.2481 18.5 5.50152 17.9891 4 17.0259C4.25935 17.0571 4.52001 17.0727 4.78131 17.0733C6.25944 17.0746 7.69531 16.5787 8.85818 15.6655C7.4535 15.6389 6.22173 14.7231 5.79143 13.3861C6.28349 13.481 6.79049 13.4615 7.27345 13.3296C5.74203 13.0202 4.64026 11.6748 4.64026 10.1123C4.64026 10.098 4.64026 10.0843 4.64026 10.0707C5.09657 10.3248 5.60748 10.4659 6.13008 10.4815C4.68771 9.51757 4.2431 7.59889 5.11412 6.09878C6.78074 8.1494 9.23973 9.39602 11.8794 9.52797C11.6149 8.38794 11.9763 7.19331 12.8291 6.39191C14.1512 5.14919 16.2306 5.21289 17.4734 6.53426C18.2086 6.38931 18.9132 6.11958 19.558 5.73741C19.3129 6.49721 18.8001 7.14262 18.115 7.55274C18.7656 7.47605 19.4013 7.30186 20 7.03602C19.5593 7.69638 19.0042 8.2716 18.362 8.73632Z" fill="#1D9BF0"/>
</svg>
