<svg width="24" height="24" viewBox="0 0 24 24" fill="none" xmlns="http://www.w3.org/2000/svg">
<path fill-rule="evenodd" clip-rule="evenodd" d="M18.2336 6.83242C18.9217 7.01374 19.466 7.54762 19.6508 8.22253C19.9897 9.45147 20 12 20 12C20 12 20 14.5586 19.6611 15.7775C19.4763 16.4524 18.932 16.9863 18.2439 17.1676C17.0013 17.5 12 17.5 12 17.5C12 17.5 6.99872 17.5 5.7561 17.1676C5.06804 16.9863 4.52375 16.4524 4.3389 15.7775C4 14.5485 4 12 4 12C4 12 4 9.45147 4.32863 8.2326C4.51348 7.55769 5.05777 7.02381 5.74583 6.84249C6.98845 6.51007 11.9897 6.5 11.9897 6.5C11.9897 6.5 16.991 6.5 18.2336 6.83242ZM14.5469 12L10.3979 14.3571V9.64286L14.5469 12Z" fill="#FF0000"/>
</svg>
